<svg xmlns="http://www.w3.org/2000/svg" width="66" height="93" viewBox="0 0 66 93">
  <g id="Group_9288" data-name="Group 9288" transform="translate(4 6)" opacity="0.1">
    <g id="Group_9287" data-name="Group 9287">
      <g id="tomato" transform="translate(-4 -6)">
        <path id="Path_1" data-name="Path 1" d="M25.371,6.292l0,0c-.01-.007-.023-.011-.033-.018a1.025,1.025,0,0,0-.449-.941c-1.539-1.021-4.517-2.511-7.467-1.289V1.724A1.619,1.619,0,0,0,15.936,0H14.606a1.619,1.619,0,0,0-1.484,1.724v2.54A10.021,10.021,0,0,0,6.11,5.5a1.039,1.039,0,0,0-.421,1.255.969.969,0,0,0,.073.129c-.061.017-.124.031-.185.048a1.038,1.038,0,0,0-.394.211A14.672,14.672,0,0,0,0,18.23c0,8.261,7.094,14.982,15.815,14.982S31.63,26.491,31.63,18.23A14.62,14.62,0,0,0,25.371,6.292ZM13.119,5.524a.961.961,0,0,0,.83-.211,1.046,1.046,0,0,0,.369-.805V1.724c0-.273.156-.486.288-.486h1.329c.133,0,.288.213.288.486V4.353a1.036,1.036,0,0,0,.458.868.965.965,0,0,0,.958.07c2.186-1.034,4.5-.154,5.977.7a13.393,13.393,0,0,0-3.4.317,1.009,1.009,0,0,0-.745.845,1.059,1.059,0,0,0,.491,1.057,5.525,5.525,0,0,1,1.817,1.707,4.316,4.316,0,0,1,.55,1.215,7.536,7.536,0,0,0-3.787-1.664,7.687,7.687,0,0,0-.83-.076.974.974,0,0,0-.733.3,1.069,1.069,0,0,0-.3.762,11.309,11.309,0,0,1-1.631,6.274c-.589-1.292-.771-4.071-.738-6.355a1.029,1.029,0,0,0-.885-1.044,3.512,3.512,0,0,0-.465-.03c-.03,0-.06.006-.09.007-.081,0-.163.011-.245.018-.123.01-.246.023-.37.045-.08.013-.16.031-.24.049-.127.029-.254.061-.381.1q-.116.035-.23.074c-.131.045-.261.094-.39.148-.073.03-.145.06-.218.093q-.2.09-.395.191c-.068.035-.136.069-.2.105-.134.073-.266.151-.4.23-.061.037-.123.072-.184.11-.143.09-.282.182-.419.276-.045.031-.092.06-.136.091q-.272.19-.528.387a9.346,9.346,0,0,1,.675-1.081c.013-.017.025-.037.036-.054A8.891,8.891,0,0,1,9.978,9.2l0,0a8,8,0,0,1,.887-.8c.038-.03.079-.064.115-.091l.06-.043c.074-.054.146-.106.211-.151a1.041,1.041,0,0,0,.447-.97,1.028,1.028,0,0,0-.628-.859c-.031-.012-.068-.018-.1-.03a4.279,4.279,0,0,0-.42-.129c-.091-.024-.183-.046-.28-.064l-.04-.009c-.009,0-.017,0-.026,0a8.454,8.454,0,0,0-2.426-.039,9.073,9.073,0,0,1,5.339-.485Zm2.7,26.451C7.754,31.975,1.2,25.809,1.2,18.231A13.42,13.42,0,0,1,5.919,8.115,34.351,34.351,0,0,1,10,7.269c.047.009.1.013.145.024l.112.024c-.054.04-.114.091-.17.135s-.121.094-.186.149-.117.1-.176.156-.142.122-.217.193-.144.143-.216.215-.131.127-.2.2c-.121.127-.243.268-.365.412-.02.024-.04.044-.06.068A10.66,10.66,0,0,0,7.057,11.51a1.034,1.034,0,0,0,.312,1.231.977.977,0,0,0,1.246-.026c1.022-.87,2.932-2.291,4.5-2.184-.016,1.741.073,5.516,1.073,7.127a1,1,0,0,0,.815.478h.03a.991.991,0,0,0,.81-.427,12.33,12.33,0,0,0,2.036-7.074,6.359,6.359,0,0,1,4.063,1.79.961.961,0,0,0,1.141.186,1.036,1.036,0,0,0,.549-1.062,5.551,5.551,0,0,0-.194-.915c0-.014-.007-.027-.011-.042a5.473,5.473,0,0,0-.39-.928c-.023-.044-.039-.087-.064-.13-.075-.134-.166-.269-.257-.4-.032-.047-.056-.094-.09-.141-.078-.108-.172-.215-.261-.322-.061-.073-.113-.148-.18-.221s-.173-.169-.26-.253-.18-.187-.285-.278-.2-.154-.3-.231c-.119-.094-.229-.189-.361-.28.3-.053.672-.1,1.127-.136l.055,0,.279-.017.157-.008.227-.009c.095,0,.192,0,.292-.006l.139,0c.182,0,.376,0,.576,0l.215.02c.177.025.355.046.532.069l.148.018a13.385,13.385,0,0,1,5.71,10.9c0,7.58-6.559,13.746-14.62,13.746Zm0,0" transform="translate(0 0)" fill="#d6d6d6"/>
        <path id="Path_2" data-name="Path 2" d="M40.039,285.277a.621.621,0,0,0-1.228.18,7.031,7.031,0,0,0,.9,2.573.621.621,0,0,0,1.068-.633A5.836,5.836,0,0,1,40.039,285.277Zm0,0" transform="translate(-36.28 -266.281)" fill="#d6d6d6"/>
        <path id="Path_3" data-name="Path 3" d="M40.561,214.433l.043,0a.62.62,0,0,0,.618-.578,7.443,7.443,0,0,1,.43-2.038.621.621,0,0,0-1.166-.426,8.741,8.741,0,0,0-.5,2.379.621.621,0,0,0,.577.661Zm0,0" transform="translate(-37.381 -197.304)" fill="#d6d6d6"/>
      </g>
      <g id="inclined-lemon" transform="translate(-2.418 31.613)">
        <path id="Path_4" data-name="Path 4" d="M31.274,5.592a3.97,3.97,0,0,0,.283-2.408h0A3.951,3.951,0,0,0,26.038.356a4.249,4.249,0,0,1-3,.27C17.441-1.092,10.681.944,5.812,5.813S-1.092,17.441.626,23.035a4.249,4.249,0,0,1-.27,3,3.951,3.951,0,0,0,2.828,5.518,4.112,4.112,0,0,0,.77.073,3.923,3.923,0,0,0,1.638-.356,4.248,4.248,0,0,1,3-.27c5.594,1.718,12.354-.318,17.222-5.187S32.721,14.189,31,8.595A4.249,4.249,0,0,1,31.274,5.592ZM30.059,8.885c1.611,5.249-.328,11.621-4.941,16.233S14.133,31.67,8.885,30.059a5.233,5.233,0,0,0-3.7.316,2.986,2.986,0,0,1-1.812.21,2.943,2.943,0,0,1-2.324-2.324,2.986,2.986,0,0,1,.21-1.811,5.234,5.234,0,0,0,.316-3.7C-.041,17.5,1.9,11.124,6.511,6.512a17.965,17.965,0,0,1,12.407-5.5,13.02,13.02,0,0,1,3.826.559,5.233,5.233,0,0,0,3.7-.316,2.987,2.987,0,0,1,1.812-.21,2.944,2.944,0,0,1,2.324,2.324h0a2.986,2.986,0,0,1-.21,1.812A5.232,5.232,0,0,0,30.059,8.885Z" transform="translate(0 0)" fill="#d6d6d6"/>
        <path id="Path_5" data-name="Path 5" d="M34.678,192.047a.509.509,0,0,0-.681.231A14.481,14.481,0,0,0,32.821,202.9a.509.509,0,1,0,.973-.3,13.473,13.473,0,0,1,1.115-9.874A.509.509,0,0,0,34.678,192.047Z" transform="translate(-30.231 -180.318)" fill="#d6d6d6"/>
        <path id="Path_6" data-name="Path 6" d="M456,145.051a.509.509,0,0,0,.5.431.518.518,0,0,0,.079-.006.509.509,0,0,0,.424-.581,11.97,11.97,0,0,0-.383-1.67.509.509,0,0,0-.973.3A10.943,10.943,0,0,1,456,145.051Z" transform="translate(-427.579 -134.062)" fill="#d6d6d6"/>
        <path id="Path_7" data-name="Path 7" d="M434.526,200h-.005a.509.509,0,0,0-.509.5,15.115,15.115,0,0,1-1.951,7.06.509.509,0,1,0,.892.49,16.132,16.132,0,0,0,2.076-7.54A.509.509,0,0,0,434.526,200Z" transform="translate(-405.456 -187.767)" fill="#d6d6d6"/>
      </g>
      <g id="carrot" transform="translate(30.37 12.807)">
        <path id="Path_8" data-name="Path 8" d="M31.323,26.616a23.226,23.226,0,0,0-2.6-5.436A84.711,84.711,0,0,0,20.83,10.719a.618.618,0,1,0-.927.817c.329.373.893,1.023,1.6,1.867l-1.31,1.31a.618.618,0,1,0,.874.874l1.224-1.224a73.079,73.079,0,0,1,5.384,7.464c.138.226.271.447.4.666l-1.49,1.49a.618.618,0,1,0,.874.874L28.7,23.61c1.711,3.189,2.151,5.408,1.228,6.331a1.882,1.882,0,0,1-1.384.468c-1.715,0-4.541-1.247-8.135-3.619l1.3-1.3a.618.618,0,1,0-.874-.874l-1.466,1.466a85.308,85.308,0,0,1-9.857-8.028l-.1-.107,1.769-1.77a.618.618,0,0,0-.874-.874l-1.7,1.7A5.356,5.356,0,0,1,7.418,13.8a6.14,6.14,0,0,1,2.1-4.263c2.116-2.116,4.287-2.64,6.453-1.556a.618.618,0,1,0,.553-1.105A6.014,6.014,0,0,0,13.6,6.2a12.1,12.1,0,0,0-.956-4.03C11.995.781,11.1.015,10.114.015c-1.2,0-2.256,1.149-2.9,3.116-1.845-.936-3.4-1-4.253-.153S2.18,5.386,3.116,7.23C1.149,7.873,0,8.928,0,10.129c0,.982.765,1.879,2.153,2.524a12.087,12.087,0,0,0,4.033.958c0,.061,0,.123,0,.184a7.272,7.272,0,0,0,2.451,5.136,85.013,85.013,0,0,0,10.5,8.495,32.362,32.362,0,0,0,6.582,3.622,8.378,8.378,0,0,0,2.827.6,3.052,3.052,0,0,0,2.255-.828c.889-.889,1.065-2.3.523-4.2ZM1.236,10.129c0-.592.911-1.415,2.946-1.919a.618.618,0,0,0,.381-.919C3.48,5.5,3.418,4.27,3.836,3.851s1.645-.356,3.44.726A.618.618,0,0,0,8.2,4.2c.5-2.035,1.327-2.946,1.919-2.946.922,0,2.03,2.083,2.256,5.129A8.22,8.22,0,0,0,8.646,8.661a8.2,8.2,0,0,0-2.284,3.724c-3.045-.227-5.126-1.335-5.126-2.256Z" transform="translate(0 -0.015)" fill="#d6d6d6"/>
        <path id="Path_9" data-name="Path 9" d="M231.685,228.629l-1.7,1.7a.632.632,0,0,0,.894.894l1.7-1.7a.632.632,0,0,0-.894-.894Z" transform="translate(-215.637 -214.365)" fill="#d6d6d6"/>
        <path id="Path_10" data-name="Path 10" d="M328.013,290.233l1.647-1.647a.632.632,0,0,0-.894-.894l-1.647,1.647a.632.632,0,0,0,.894.894Z" transform="translate(-306.782 -269.786)" fill="#d6d6d6"/>
        <path id="Path_11" data-name="Path 11" d="M289.742,138.1a.632.632,0,0,0,0-1.264h0a.632.632,0,1,0,0,1.264Z" transform="translate(-271.265 -128.391)" fill="#d6d6d6"/>
      </g>
      <g id="eggplant" transform="translate(19.909 47.462)">
        <g id="Group_2" data-name="Group 2">
          <g id="Group_1" data-name="Group 1">
            <path id="Path_12" data-name="Path 12" d="M85.175,1.567A2.166,2.166,0,0,0,84.1.256a2.227,2.227,0,0,0-2.966.861l-2.02,3.59a6.88,6.88,0,0,0-6.15,1.839.788.788,0,0,0-.061.068c-1.234,1.543-4.985,5.49-7.488,5.242a.78.78,0,0,0-.82.524.768.768,0,0,0,.338.905,6.87,6.87,0,0,0,4.41,1.129A36.036,36.036,0,0,1,57.711,25.128a8.375,8.375,0,0,0-4.077,6.726A7.376,7.376,0,0,0,55.911,37.2a8.457,8.457,0,0,0,5.426,2.316q.466.026.925.026a15.321,15.321,0,0,0,8.156-2.32A21.59,21.59,0,0,0,76.6,31.2a39.256,39.256,0,0,0,5.016-10.3c.192.244.4.491.624.741a.788.788,0,0,0,.876.2.772.772,0,0,0,.489-.747,28.717,28.717,0,0,1,.833-8.322c0-.011.006-.022.008-.033A6.639,6.639,0,0,0,82.915,6.87L84.98,3.243A2.139,2.139,0,0,0,85.175,1.567ZM75.322,30.311c-3.809,5.383-8.484,7.961-13.9,7.66A6.288,6.288,0,0,1,55.2,31.854a6.923,6.923,0,0,1,3.289-5.385A37.589,37.589,0,0,0,71.592,13.81a15.914,15.914,0,0,0,3.539-2.147.045.045,0,0,1,.057-.006.049.049,0,0,1,.032.052,11.622,11.622,0,0,0,1.5,6.009.784.784,0,0,0,1.466-.19,12.227,12.227,0,0,1,1.228-3.656A9.105,9.105,0,0,0,80.5,19.216,38.384,38.384,0,0,1,75.322,30.311Zm7.6-17.914a28.75,28.75,0,0,0-.888,6.375,7.686,7.686,0,0,1-1.045-5.014,1.466,1.466,0,0,0-1-1.555,1.547,1.547,0,0,0-.507-.086,1.467,1.467,0,0,0-1.236.676,9.371,9.371,0,0,0-1.01,2.158,8.85,8.85,0,0,1-.456-3.212,1.586,1.586,0,0,0-.9-1.464,1.619,1.619,0,0,0-1.718.171c-2.834,2.19-4.743,2.645-6.237,2.4a13.928,13.928,0,0,0,3.322-2.283A27.1,27.1,0,0,0,74.1,7.609a5.315,5.315,0,0,1,7.405.03A5.121,5.121,0,0,1,82.925,12.4Zm.692-9.912L81.724,5.812a6.786,6.786,0,0,0-1.093-.623L82.5,1.868a.647.647,0,0,1,.862-.25A.63.63,0,0,1,83.674,2,.621.621,0,0,1,83.618,2.485Z" transform="translate(-53.634 0)" fill="#d6d6d6"/>
          </g>
        </g>
        <g id="Group_4" data-name="Group 4" transform="translate(10.397 27.223)">
          <g id="Group_3" data-name="Group 3" transform="translate(0)">
            <path id="Path_13" data-name="Path 13" d="M197.635,357.864a.8.8,0,0,0-1.106.229c-2.256,3.433-4.953,5.679-8.016,6.677a.8.8,0,1,0,.494,1.518c3.416-1.113,6.4-3.575,8.855-7.318A.8.8,0,0,0,197.635,357.864Z" transform="translate(-187.963 -357.733)" fill="#d6d6d6"/>
          </g>
        </g>
        <g id="Group_6" data-name="Group 6" transform="translate(20.142 25.158)">
          <g id="Group_5" data-name="Group 5" transform="translate(0)">
            <path id="Path_14" data-name="Path 14" d="M313.014,326.468a.8.8,0,1,0,.234.564A.8.8,0,0,0,313.014,326.468Z" transform="translate(-311.651 -326.234)" fill="#d6d6d6"/>
          </g>
        </g>
      </g>
    </g>
  </g>
</svg>
