<svg xmlns="http://www.w3.org/2000/svg" width="31" height="24" viewBox="0 0 31 24">
  <g id="code" transform="translate(0 -65.225)">
    <g id="Group_6918" data-name="Group 6918" transform="translate(0 65.225)">
      <path id="Path_576" data-name="Path 576" d="M198.5,65.549l-1.109-.3a.51.51,0,0,0-.42.044.571.571,0,0,0-.277.341L190.019,88.2a.513.513,0,0,0,.045.428.578.578,0,0,0,.349.271l1.109.3a.508.508,0,0,0,.42-.044.572.572,0,0,0,.277-.341l6.671-22.566a.514.514,0,0,0-.045-.428A.578.578,0,0,0,198.5,65.549Z" transform="translate(-178.955 -65.225)" fill="#a2bc1a"/>
      <path id="Path_577" data-name="Path 577" d="M10.409,120.2a.54.54,0,0,0-.179-.4l-.894-.866a.575.575,0,0,0-.823,0L.179,127.013a.533.533,0,0,0,0,.8l8.334,8.074a.575.575,0,0,0,.823,0l.894-.866a.533.533,0,0,0,0-.8L3.2,127.411,10.23,120.6A.539.539,0,0,0,10.409,120.2Z" transform="translate(0 -115.411)" fill="#a2bc1a"/>
      <path id="Path_578" data-name="Path 578" d="M366.541,127.01l-8.334-8.074a.575.575,0,0,0-.823,0l-.894.866a.534.534,0,0,0,0,.8l7.029,6.809-7.029,6.81a.534.534,0,0,0,0,.8l.894.866a.575.575,0,0,0,.823,0l8.334-8.074a.534.534,0,0,0,0-.8Z" transform="translate(-335.72 -115.408)" fill="#a2bc1a"/>
    </g>
  </g>
</svg>
