<svg id="research" xmlns="http://www.w3.org/2000/svg" width="100" height="100" viewBox="0 0 100 100">
  <path id="Path_23801" data-name="Path 23801" d="M68.129,71.8a36.508,36.508,0,0,1-4.224.245,35.634,35.634,0,0,1-19.451-5.774l-4.6,4.6L13.038,97.685A7.584,7.584,0,1,1,2.129,87.147c.061-.063.123-.126.186-.187L33.731,55.536a36,36,0,1,1,34.4,16.26ZM35.982,58.647l-2.844,2.844L38.5,66.854l2.842-2.843a36.233,36.233,0,0,1-5.359-5.364ZM3.886,92.322A3.764,3.764,0,0,0,5,95a3.879,3.879,0,0,0,5.36,0L35.826,69.528l-5.361-5.362L5,89.641a3.762,3.762,0,0,0-1.111,2.681Zm92.1-60.032a32.227,32.227,0,1,0-28.3,35.738A32.228,32.228,0,0,0,95.988,32.29Zm0,0" transform="translate(-0.001 0)" fill="#fff"/>
  <path id="Path_23802" data-name="Path 23802" d="M58.432,47.565A23.782,23.782,0,0,0,40.8,42.551a1.842,1.842,0,0,1-.424-3.659A27.632,27.632,0,0,1,71.015,63.15h0A27.834,27.834,0,0,1,71.2,67.1,1.841,1.841,0,0,1,69.357,68.9h-.05a1.841,1.841,0,0,1-1.793-1.89,24.64,24.64,0,0,0-.153-3.428,23.8,23.8,0,0,0-8.93-16.013Zm0,0" transform="translate(21.429 -31.36)" fill="#fff"/>
  <path id="Path_23803" data-name="Path 23803" d="M91.678,146.255a5.44,5.44,0,0,1,1.474-.409,5.514,5.514,0,0,1,4.546,1.627l6.431-3.006a5.526,5.526,0,1,1,10.113,2.45l3.393,4.408a1.842,1.842,0,0,1-2.92,2.246l-3.373-4.384a5.553,5.553,0,0,1-1.081.236,5.317,5.317,0,0,1-.643.039,5.5,5.5,0,0,1-3.913-1.658l-6.423,3a5.527,5.527,0,0,1-4.852,6.022,5.44,5.44,0,0,1-.641.039,5.513,5.513,0,0,1-4.852-8.146l-3.655-4.036a5.4,5.4,0,0,1-7.613-4.671l-4.568-1.24a1.843,1.843,0,0,1,.965-3.557l4.562,1.24A5.5,5.5,0,0,1,88,142.2Zm18.157-.492a1.842,1.842,0,0,0-.21-3.671,2.071,2.071,0,0,0-.214.011,1.842,1.842,0,0,0,.424,3.66ZM92.649,152.78a1.842,1.842,0,1,0,1.148-3.289,2.122,2.122,0,0,0-.217.013,1.842,1.842,0,0,0-.921,3.275Zm-7.694-13.589a1.844,1.844,0,1,0-.245,1.389A1.843,1.843,0,0,0,84.955,139.191Zm0,0" transform="translate(-31.608 -107.634)" fill="#fff"/>
</svg>
