<svg xmlns="http://www.w3.org/2000/svg" width="29" height="29" viewBox="0 0 29 29">
  <g id="Group_9283" data-name="Group 9283" transform="translate(-12.998 -12.41)">
    <g id="Ellipse_4" data-name="Ellipse 4" transform="translate(12.998 12.41)" fill="none" stroke="#a2bc1a" stroke-width="1">
      <circle cx="14.5" cy="14.5" r="14.5" stroke="none"/>
      <circle cx="14.5" cy="14.5" r="14" fill="none"/>
    </g>
    <g id="Group_9244" data-name="Group 9244">
      <path id="Path_571" data-name="Path 571" d="M1.5,0A1.5,1.5,0,1,1,0,1.5,1.5,1.5,0,0,1,1.5,0Z" transform="translate(20.998 25.41)" fill="#a2bc1a"/>
      <path id="Path_572" data-name="Path 572" d="M1.5,0A1.5,1.5,0,1,1,0,1.5,1.5,1.5,0,0,1,1.5,0Z" transform="translate(25.998 25.41)" fill="#a2bc1a"/>
      <path id="Path_573" data-name="Path 573" d="M1.5,0A1.5,1.5,0,1,1,0,1.5,1.5,1.5,0,0,1,1.5,0Z" transform="translate(30.998 25.41)" fill="#a2bc1a"/>
    </g>
  </g>
</svg>
