<svg xmlns="http://www.w3.org/2000/svg" width="29" height="27" viewBox="0 0 29 27">
  <g id="layers" transform="translate(0 -28.193)">
    <g id="Group_6917" data-name="Group 6917" transform="translate(0 28.193)">
      <path id="Path_569" data-name="Path 569" d="M29,41.693a1.684,1.684,0,0,0-.889-1.505l-2.159-1.13,2.159-1.13h0a1.719,1.719,0,0,0,0-3.01l-12.19-6.377a3.069,3.069,0,0,0-2.842,0L.889,34.919a1.718,1.718,0,0,0,0,3.01l2.159,1.13L.889,40.188a1.719,1.719,0,0,0,0,3.01l2.159,1.13L.889,45.457a1.719,1.719,0,0,0,0,3.01l12.19,6.377a3.07,3.07,0,0,0,2.842,0l12.19-6.377a1.718,1.718,0,0,0,0-3.01l-2.159-1.13,2.159-1.13A1.684,1.684,0,0,0,29,41.693ZM1.485,36.682a.294.294,0,0,1,0-.515L13.675,29.79a1.783,1.783,0,0,1,1.651,0l12.189,6.377a.294.294,0,0,1,0,.515L15.325,43.058a1.782,1.782,0,0,1-1.65,0Zm26.03,10.024a.294.294,0,0,1,0,.515L15.325,53.6a1.782,1.782,0,0,1-1.65,0L1.485,47.22a.294.294,0,0,1,0-.515l3.054-1.6,8.54,4.467a3.07,3.07,0,0,0,2.842,0l8.54-4.467Zm0-4.754L15.325,48.328a1.782,1.782,0,0,1-1.65,0L1.485,41.951a.294.294,0,0,1,0-.515l3.054-1.6,8.54,4.467a3.069,3.069,0,0,0,2.842,0l8.54-4.467,3.053,1.6a.294.294,0,0,1,0,.515Z" transform="translate(0 -28.193)" fill="#a2bc1a"/>
    </g>
  </g>
</svg>
