<svg xmlns="http://www.w3.org/2000/svg" width="16.725" height="11.579" viewBox="0 0 16.725 11.579">
  <g id="left-quote" transform="translate(0)">
    <g id="Group_3002" data-name="Group 3002">
      <path id="Path_1578" data-name="Path 1578" d="M4.885,14.189a4.424,4.424,0,0,1-1.117.148,3.816,3.816,0,0,1-1.4-.261c.352,1.171,1.2,3.192,2.884,3.42a.39.39,0,0,1,.327.262l.368,1.2a.336.336,0,0,1-.051.3.407.407,0,0,1-.28.161,3.076,3.076,0,0,1-.377.023c-2.023,0-4.027-1.918-4.872-4.665-.5-1.611-.642-4.034.581-5.559A3.779,3.779,0,0,1,3.912,7.858h.016a3.528,3.528,0,0,1,3.417,2.357,2.947,2.947,0,0,1-.325,2.451A3.524,3.524,0,0,1,4.885,14.189Z" transform="translate(0 -7.858)" fill="#a2bc1a"/>
      <path id="Path_1579" data-name="Path 1579" d="M55.646,12.666a3.524,3.524,0,0,1-2.135,1.523,4.424,4.424,0,0,1-1.117.148,3.817,3.817,0,0,1-1.4-.261c.352,1.171,1.2,3.192,2.884,3.42a.39.39,0,0,1,.327.262l.368,1.2a.336.336,0,0,1-.051.3.406.406,0,0,1-.28.161,3.072,3.072,0,0,1-.377.023c-2.023,0-4.027-1.918-4.872-4.665-.5-1.611-.642-4.034.581-5.559a3.779,3.779,0,0,1,2.966-1.354h.016a3.528,3.528,0,0,1,3.417,2.357A2.949,2.949,0,0,1,55.646,12.666Z" transform="translate(-39.379 -7.858)" fill="#a2bc1a"/>
    </g>
  </g>
</svg>
