<svg xmlns="http://www.w3.org/2000/svg" width="186" height="59" viewBox="0 0 186 59">
  <g id="Group_7934" data-name="Group 7934" transform="translate(-1495 -270.101)">
    <g id="Group_7927" data-name="Group 7927" transform="translate(1553.735 303.544)">
      <g id="Group_2" data-name="Group 2" transform="translate(0 1.363)">
        <path id="Path_2" data-name="Path 2" d="M602.478,241.361c.871,1.464,1.147,1.739,1.926,1.739s1.009-.229,1.88-1.739l2.705-4.8a3.128,3.128,0,0,1,3.394-2.013h.6c1.834,0,2.064.458,1.147,1.967l-3.073,5.171c-1.421,2.379-1.88,2.974-2.8,3.477a3.6,3.6,0,0,1,1.192,1.007,5.706,5.706,0,0,1,.55.778l1.055,1.693L615,255.27c.964,1.51.734,1.967-1.1,1.967h-.642a3.216,3.216,0,0,1-3.44-2.013L606.284,249c-.871-1.6-1.1-1.784-1.88-1.784s-1.055.275-1.926,1.784l-3.531,6.223a3.214,3.214,0,0,1-3.439,2.013h-.642c-1.834,0-2.063-.457-1.1-1.967l3.99-6.634c1.421-2.334,1.834-2.974,2.751-3.478-.917-.5-1.33-1.1-2.751-3.477l-3.073-5.171c-.962-1.51-.734-1.967,1.1-1.967h.6a3.127,3.127,0,0,1,3.393,2.013Z" transform="translate(-593.207 -234.543)" fill="#fff"/>
      </g>
      <g id="Group_3" data-name="Group 3" transform="translate(26.286 0)">
        <path id="Path_3" data-name="Path 3" d="M635.774,243.477c0-6.545,3.852-9.749,10.455-9.749,7.107,0,10.5,3.112,10.5,9.749v3.981c0,6.636-3.164,9.977-9.538,9.977-3.255,0-5.5-1.006-6.741-2.974v2.763c0,1.648-.413,2.06-2.064,2.06h-.55c-1.651,0-2.063-.412-2.063-2.06Zm16.232.137c0-3.845-1.192-5.492-5.732-5.492-4.448,0-5.823,1.648-5.823,5.492v3.935c0,3.8,1.284,5.447,5.823,5.447,4.448,0,5.732-1.6,5.732-5.447Z" transform="translate(-635.774 -233.728)" fill="#fff"/>
      </g>
      <g id="Group_4" data-name="Group 4" transform="translate(51.702 1.193)">
        <path id="Path_4" data-name="Path 4" d="M681.643,254.868c0,1.647-.413,2.059-2.064,2.059h-.6c-1.65,0-2.063-.412-2.063-2.059V241.827q0-8.1,8.667-8.1a5.3,5.3,0,0,1,.917.046c1.514.183,1.926.549,1.926,2.151v.64c0,1.51-.32,1.831-1.926,1.6a5.3,5.3,0,0,0-.917-.046c-3.072,0-3.943,1.236-3.943,4.026Z" transform="translate(-676.919 -233.728)" fill="#fff"/>
      </g>
      <g id="Group_6" data-name="Group 6" transform="translate(88.673 0.852)">
        <path id="Path_6" data-name="Path 6" d="M736.82,253.816c0-1.6.367-1.968,1.834-1.6a25.858,25.858,0,0,0,6.7.869c3.118,0,4.265-.5,4.265-1.968,0-1.144-.6-1.692-2.935-2.745l-4.953-2.2c-3.119-1.327-4.54-2.882-4.54-6.223,0-4.255,2.66-6.223,8.759-6.223a19.9,19.9,0,0,1,5.318.686c1.605.5,1.927.778,1.927,2.288v.549c0,1.6-.413,1.968-1.881,1.556a19.641,19.641,0,0,0-5.457-.732c-2.98,0-4.035.549-4.035,1.876,0,1.1.551,1.6,2.156,2.334l5.319,2.287c3.347,1.418,4.906,3.021,4.906,6.452,0,4.393-2.8,6.406-9.263,6.406a24.84,24.84,0,0,1-6.282-.778c-1.513-.412-1.834-.731-1.834-2.242Z" transform="translate(-736.82 -233.728)" fill="#fff"/>
      </g>
      <g id="Group_7" data-name="Group 7" transform="translate(109.886 0.852)">
        <path id="Path_7" data-name="Path 7" d="M771.143,253.816c0-1.6.367-1.968,1.834-1.6a25.86,25.86,0,0,0,6.695.869c3.119,0,4.265-.5,4.265-1.968,0-1.144-.6-1.692-2.934-2.745l-4.952-2.2c-3.119-1.327-4.54-2.882-4.54-6.223,0-4.255,2.66-6.223,8.759-6.223a19.906,19.906,0,0,1,5.319.686c1.6.5,1.926.778,1.926,2.288v.549c0,1.6-.413,1.968-1.88,1.556a19.641,19.641,0,0,0-5.456-.732c-2.981,0-4.036.549-4.036,1.876,0,1.1.551,1.6,2.155,2.334l5.319,2.287c3.347,1.418,4.907,3.021,4.907,6.452,0,4.393-2.8,6.406-9.263,6.406a24.845,24.845,0,0,1-6.282-.778c-1.513-.412-1.834-.731-1.834-2.242Z" transform="translate(-771.143 -233.728)" fill="#fff"/>
      </g>
      <path id="Path_20085" data-name="Path 20085" d="M21.276,12.817,4.344,12.88a8.409,8.409,0,0,0,2.189,4.99,6.153,6.153,0,0,0,4.674,1.894,7.541,7.541,0,0,0,6.575-3.7c3.3,2.016,3.089,2.321,2.833,2.686a10.667,10.667,0,0,1-3.8,3.359,12.254,12.254,0,0,1-5.7,1.438,10.831,10.831,0,0,1-7.883-3.161A11.381,11.381,0,0,1-.02,11.791,11.77,11.77,0,0,1,3.2,3.325,9.981,9.981,0,0,1,10.543-.019,10.2,10.2,0,0,1,17.885,3.19Q21.172,6.414,21.276,12.817ZM17.209,9.653a8.147,8.147,0,0,0-2.191-4.242,5.752,5.752,0,0,0-4.383-1.884A5.518,5.518,0,0,0,6.574,5.259,7.673,7.673,0,0,0,4.5,9.7Z" transform="translate(64.941 1.042)" fill="#fff"/>
    </g>
    <g id="Group_7904" data-name="Group 7904" transform="translate(1495 271.101)">
      <path id="Subtraction_12" data-name="Subtraction 12" d="M48.363,44.989H12.091a3.5,3.5,0,0,1-2.515-1.063,3.642,3.642,0,0,1-1.041-2.566l.494-6.555c.2-.022,4.988-.551,10.989-1.769a11.17,11.17,0,0,0,5.866,6.2,12.186,12.186,0,0,0,4.9,1.052,13.24,13.24,0,0,0,4.385-.783,14.266,14.266,0,0,0,5.465-3.488,6.973,6.973,0,0,0,2.253-3.554.723.723,0,0,0,.05-.262,2,2,0,0,0-.375-1.336A2.1,2.1,0,0,0,41.7,30.1a2.741,2.741,0,0,0-.992-.2,1.965,1.965,0,0,0-1.673.935h0a9.027,9.027,0,0,1-.743,1.9,4.98,4.98,0,0,1-1.016,1.307A9.336,9.336,0,0,1,34,35.736a8,8,0,0,1-2.644.48,6.582,6.582,0,0,1-2.871-.66,7.788,7.788,0,0,1-2.07-1.45A9.265,9.265,0,0,1,24.8,31.965c2.33-.576,4.5-1.2,6.455-1.853a84.4,84.4,0,0,0,19.084-9.674v.009c.68-.486,2.007-1.455,3.261-2.484a12.858,12.858,0,0,0,2.813-2.826c.522-.935.022-2.139-.489-2.985a10.1,10.1,0,0,0-1.246-1.628h0a14.254,14.254,0,0,1,1.963.974,9.144,9.144,0,0,1,1.518,1.112A3.9,3.9,0,0,1,59.2,14.046a3.148,3.148,0,0,1,.117,1.639,6.16,6.16,0,0,1-.51,1.568,9.378,9.378,0,0,1-.984,1.638L50.68,24.93l1.239,16.431a3.642,3.642,0,0,1-1.042,2.566A3.5,3.5,0,0,1,48.363,44.989ZM5.76,31.643A7.446,7.446,0,0,1,2.97,31.2,5.462,5.462,0,0,1,.594,29.7,3.71,3.71,0,0,1,0,27.3a3.781,3.781,0,0,1,.464-1.668,9.057,9.057,0,0,1,1.021-1.548A14.178,14.178,0,0,1,2.97,22.495a9.914,9.914,0,0,0-.588,1.92c-.179.949-.222,2.219.588,2.881a5.282,5.282,0,0,0,3.171.684,23.428,23.428,0,0,0,3.424-.288L11.38,3.628a3.641,3.641,0,0,1,1.042-2.565A3.5,3.5,0,0,1,14.936,0H45.518a3.5,3.5,0,0,1,2.514,1.063,3.642,3.642,0,0,1,1.042,2.565l1.077,14.289c-.681.369-4.324,2.321-9.228,4.5a11.819,11.819,0,0,0-5.552-5.49,12.573,12.573,0,0,0-5.086-1.145,11.008,11.008,0,0,0-3.657.633A11.418,11.418,0,0,0,20.1,22.382,11.655,11.655,0,0,0,19,29.524c-4.994,1.07-8.859,1.618-9.583,1.717A18.848,18.848,0,0,1,5.76,31.643ZM41.251,2.9a2.177,2.177,0,1,0,2.134,2.177A2.158,2.158,0,0,0,41.251,2.9Zm-23.47,0a2.177,2.177,0,1,0,2.134,2.177A2.158,2.158,0,0,0,17.781,2.9Zm5.825,25.313h0a8.766,8.766,0,0,1-.093-2.7,7.459,7.459,0,0,1,.757-2.444,6.475,6.475,0,0,1,1.5-1.954,6.55,6.55,0,0,1,2.148-1.23,7.019,7.019,0,0,1,2.327-.416,6.5,6.5,0,0,1,2.881.691,9.269,9.269,0,0,1,2.179,1.463,7.776,7.776,0,0,1,1.539,1.937L23.606,28.215Z" transform="translate(0 13.011)" fill="#fff"/>
      <path id="Path_20134" data-name="Path 20134" d="M2806.485-2124.981s-.915-17.879,12.519-17.917,11.615,17.917,11.615,17.917" transform="translate(-2789.031 2142.898)" fill="none" stroke="#fff" stroke-linecap="round" stroke-width="2"/>
    </g>
  </g>
</svg>
