<svg xmlns="http://www.w3.org/2000/svg" width="81" height="3" viewBox="0 0 81 3">
  <g id="Group_9263" data-name="Group 9263" transform="translate(-987 -2340)">
    <g id="Group_9286" data-name="Group 9286">
      <path id="right-arrow" d="M58.285,16.808A1.368,1.368,0,0,1,59.5,18.3a1.387,1.387,0,0,1-1.22,1.51H.361a2.087,2.087,0,0,1-.853-1.526,1.593,1.593,0,0,1,.853-1.474Z" transform="translate(987.496 2323.192)" fill="#fff"/>
      <path id="right-arrow-2" data-name="right-arrow" d="M8.285,16.808A1.368,1.368,0,0,1,9.5,18.3a1.387,1.387,0,0,1-1.22,1.51H.361a2.087,2.087,0,0,1-.853-1.526,1.593,1.593,0,0,1,.853-1.474Z" transform="translate(1050.496 2323.192)" fill="#fff"/>
      <path id="right-arrow-3" data-name="right-arrow" d="M3.285,16.808A1.368,1.368,0,0,1,4.5,18.3a1.387,1.387,0,0,1-1.22,1.51H.361a2.087,2.087,0,0,1-.853-1.526,1.593,1.593,0,0,1,.853-1.474Z" transform="translate(1063.496 2323.192)" fill="#fff"/>
    </g>
  </g>
</svg>
