<svg xmlns="http://www.w3.org/2000/svg" width="146" height="92" viewBox="0 0 146 92">
  <g id="shipped" transform="translate(0 -94.062)">
    <g id="Group_9251" data-name="Group 9251" transform="translate(0 94.062)">
      <g id="Group_9250" data-name="Group 9250">
        <path id="Path_24995" data-name="Path 24995" d="M135.78,133.064,132,118a2.28,2.28,0,0,0,1.809-2.227v-2.429a9.594,9.594,0,0,0-9.6-9.564H106.986v-5.01a4.721,4.721,0,0,0-4.724-4.706H14.478a4.721,4.721,0,0,0-4.724,4.706v41.294a2.286,2.286,0,0,0,4.572,0V98.768a.152.152,0,0,1,.152-.152h87.783a.152.152,0,0,1,.152.152v41.295a2.286,2.286,0,0,0,4.572,0v-2.582h26.979a7.478,7.478,0,0,1,7.1,5.162H133.96a2.282,2.282,0,0,0-2.286,2.277v4.858a7.157,7.157,0,0,0,7.163,7.135h2.591v10.02H135.45a14.492,14.492,0,0,0-27.365,0h-1.1V149.778a2.286,2.286,0,0,0-4.572,0v17.155H54.983a14.492,14.492,0,0,0-27.365,0H14.478a.152.152,0,0,1-.152-.152v-5.01h9.906a2.277,2.277,0,1,0,0-4.555H2.286a2.277,2.277,0,1,0,0,4.555H9.754v5.01a4.721,4.721,0,0,0,4.724,4.706H26.827c0,.051,0,.1,0,.152a14.478,14.478,0,0,0,28.956,0c0-.051,0-.1,0-.152h51.519c0,.051,0,.1,0,.152a14.478,14.478,0,0,0,28.956,0c0-.051,0-.1,0-.152h7.472A2.282,2.282,0,0,0,146,169.211V144.92A12.026,12.026,0,0,0,135.78,133.064Zm-28.794-24.731h17.221a5.025,5.025,0,0,1,5.029,5.01v.152H106.986Zm0,24.594V118.049H127.3l3.734,14.878ZM41.3,181.508a9.868,9.868,0,1,1,9.906-9.868A9.9,9.9,0,0,1,41.3,181.508Zm80.468,0a9.868,9.868,0,1,1,9.906-9.868A9.9,9.9,0,0,1,121.769,181.508Zm19.66-29.149h-2.591a2.589,2.589,0,0,1-2.591-2.581V147.2h5.182v5.162Z" transform="translate(0 -94.062)" fill="#fff"/>
      </g>
    </g>
    <g id="Group_9253" data-name="Group 9253" transform="translate(36.579 166.883)">
      <g id="Group_9252" data-name="Group 9252" transform="translate(0 0)">
        <path id="Path_24996" data-name="Path 24996" d="M132.986,350.6a4.719,4.719,0,1,0,4.719,4.719A4.724,4.724,0,0,0,132.986,350.6Z" transform="translate(-128.267 -350.597)" fill="#fff"/>
      </g>
    </g>
    <g id="Group_9255" data-name="Group 9255" transform="translate(117.079 166.883)">
      <g id="Group_9254" data-name="Group 9254" transform="translate(0 0)">
        <path id="Path_24997" data-name="Path 24997" d="M415.174,350.6a4.719,4.719,0,1,0,4.719,4.719A4.724,4.724,0,0,0,415.174,350.6Z" transform="translate(-410.455 -350.597)" fill="#fff"/>
      </g>
    </g>
    <g id="Group_9257" data-name="Group 9257" transform="translate(58.547 157.209)">
      <g id="Group_9256" data-name="Group 9256">
        <path id="Path_24998" data-name="Path 24998" d="M241.607,316.393h-34.1a2.283,2.283,0,1,0,0,4.567h34.1a2.283,2.283,0,1,0,0-4.567Z" transform="translate(-205.227 -316.393)" fill="#fff"/>
      </g>
    </g>
    <g id="Group_9259" data-name="Group 9259" transform="translate(4.871 147.494)">
      <g id="Group_9258" data-name="Group 9258" transform="translate(0 0)">
        <path id="Path_24999" data-name="Path 24999" d="M48.611,282.188H19.385a2.283,2.283,0,1,0,0,4.567H48.611a2.283,2.283,0,1,0,0-4.567Z" transform="translate(-17.102 -282.188)" fill="#fff"/>
      </g>
    </g>
    <g id="Group_9261" data-name="Group 9261" transform="translate(41.471 115.9)">
      <g id="Group_9260" data-name="Group 9260" transform="translate(0 0)">
        <path id="Path_25000" data-name="Path 25000" d="M183.364,171.691a2.283,2.283,0,0,0-3.229,0L159.83,192l-10.563-10.563a2.283,2.283,0,0,0-3.229,3.229l12.177,12.177a2.283,2.283,0,0,0,3.229,0l21.919-21.919A2.284,2.284,0,0,0,183.364,171.691Z" transform="translate(-145.37 -171.023)" fill="#fff"/>
      </g>
    </g>
  </g>
</svg>
