<svg xmlns="http://www.w3.org/2000/svg" width="19" height="27" viewBox="0 0 19 27">
  <g id="tap" transform="translate(-0.089 0)">
    <path id="Path_574" data-name="Path 574" d="M17.728,58.8h-.039a1.418,1.418,0,0,0-1.379,1.456V61.39a.409.409,0,1,1-.818,0v-2.1a1.351,1.351,0,1,0-2.688,0v2.222a.409.409,0,1,1-.818,0V58.684a1.416,1.416,0,0,0-1.366-1.466h-.042a1.37,1.37,0,0,0-1.34,1.4v3.189a.409.409,0,1,1-.818,0v-3.1c0-.01,0-.021,0-.031s0-.05,0-.075v-7.24a1.434,1.434,0,0,0-1.365-1.485A1.434,1.434,0,0,0,5.69,51.367L5.681,63.373a.409.409,0,0,1-.725.26L3.525,61.888a2.178,2.178,0,0,0-1.538-.815,2.13,2.13,0,0,0-1.6.576l-.016.015-.28.235L5.051,71.45A4.4,4.4,0,0,0,8.916,73.9h5.736a4.63,4.63,0,0,0,4.431-4.786c0-1.4,0-2.442,0-3.285,0-2.254,0-3.083,0-5.565A1.414,1.414,0,0,0,17.728,58.8Zm0,0" transform="translate(0 -46.902)" fill="#a2bc1a"/>
    <path id="Path_575" data-name="Path 575" d="M49.012,4.643a.418.418,0,0,0,.418-.418,3.373,3.373,0,1,1,6.745,0,.418.418,0,0,0,.837,0,4.209,4.209,0,1,0-8.419,0A.418.418,0,0,0,49.012,4.643Zm0,0" transform="translate(-45.605 0)" fill="#a2bc1a"/>
  </g>
</svg>
